<svg width="364" height="234" viewBox="0 0 364 234" fill="none" xmlns="http://www.w3.org/2000/svg">
<g filter="url(#filter0_b_1108_59)">
<rect x="2" y="1.86723" width="360" height="230" rx="15.1928" fill="url(#paint0_linear_1108_59)"/>
<rect x="1.36697" y="1.2342" width="361.266" height="231.266" rx="15.8259" stroke="url(#paint1_radial_1108_59)" stroke-width="1.26607"/>
<rect x="1.36697" y="1.2342" width="361.266" height="231.266" rx="15.8259" stroke="url(#paint2_linear_1108_59)" stroke-opacity="0.4" stroke-width="1.26607"/>
<rect x="1.36697" y="1.2342" width="361.266" height="231.266" rx="15.8259" stroke="url(#paint3_linear_1108_59)" stroke-width="1.26607"/>
</g>
<mask id="mask0_1108_59" style="mask-type:alpha" maskUnits="userSpaceOnUse" x="2" y="1" width="360" height="231">
<rect x="2" y="1.86723" width="360" height="230" rx="15.4011" fill="#16084C"/>
</mask>
<g mask="url(#mask0_1108_59)">
<g filter="url(#filter1_f_1108_59)">
<path d="M453.518 -133.639C475.881 -87.486 416.166 -11.6247 320.142 35.8019C224.118 83.2285 128.147 84.261 105.784 38.1079C83.4214 -8.04519 143.136 -83.9065 239.16 -131.333C335.184 -178.76 431.156 -179.792 453.518 -133.639Z" fill="black"/>
</g>
<g filter="url(#filter2_f_1108_59)">
<path d="M401.134 -167.889C423.497 -121.736 363.783 -45.8748 267.758 1.55184C171.734 48.9785 75.7629 50.0109 53.4002 3.85781C31.0376 -42.2953 90.7521 -118.157 186.776 -165.583C282.8 -213.01 378.772 -214.042 401.134 -167.889Z" fill="gray"/>
</g>
</g>
<defs>
<filter id="filter0_b_1108_59" x="-22.1752" y="-22.3079" width="408.35" height="278.35" filterUnits="userSpaceOnUse" color-interpolation-filters="sRGB">
<feFlood flood-opacity="0" result="BackgroundImageFix"/>
<feGaussianBlur in="BackgroundImageFix" stdDeviation="11.4545"/>
<feComposite in2="SourceAlpha" operator="in" result="effect1_backgroundBlur_1108_59"/>
<feBlend mode="normal" in="SourceGraphic" in2="effect1_backgroundBlur_1108_59" result="shape"/>
</filter>
<filter id="filter1_f_1108_59" x="45.2626" y="-223.419" width="468.777" height="351.306" filterUnits="userSpaceOnUse" color-interpolation-filters="sRGB">
<feFlood flood-opacity="0" result="BackgroundImageFix"/>
<feBlend mode="normal" in="SourceGraphic" in2="BackgroundImageFix" result="shape"/>
<feGaussianBlur stdDeviation="27.9144" result="effect1_foregroundBlur_1108_59"/>
</filter>
<filter id="filter2_f_1108_59" x="-7.12117" y="-257.669" width="468.777" height="351.306" filterUnits="userSpaceOnUse" color-interpolation-filters="sRGB">
<feFlood flood-opacity="0" result="BackgroundImageFix"/>
<feBlend mode="normal" in="SourceGraphic" in2="BackgroundImageFix" result="shape"/>
<feGaussianBlur stdDeviation="27.9144" result="effect1_foregroundBlur_1108_59"/>
</filter>
<linearGradient id="paint0_linear_1108_59" x1="2" y1="1.86723" x2="130.405" y2="324.142" gradientUnits="userSpaceOnUse">
<stop stop-color="white" stop-opacity="0.4"/>
<stop offset="1" stop-color="white" stop-opacity="0"/>
</linearGradient>
<radialGradient id="paint1_radial_1108_59" cx="0" cy="0" r="1" gradientUnits="userSpaceOnUse" gradientTransform="translate(2 1.86723) rotate(32.5741) scale(427.2 269.348)">
<stop stop-color="white" stop-opacity="0.7"/>
<stop offset="0.677083" stop-color="#B691FF" stop-opacity="0.4"/>
<stop offset="1" stop-color="white" stop-opacity="0"/>
</radialGradient>
<linearGradient id="paint2_linear_1108_59" x1="351.951" y1="228.034" x2="316.94" y2="84.054" gradientUnits="userSpaceOnUse">
<stop stop-color="white" stop-opacity="0.32"/>
<stop offset="0.140625" stop-color="#F9FFF5"/>
<stop offset="1" stop-color="white" stop-opacity="0"/>
</linearGradient>
<linearGradient id="paint3_linear_1108_59" x1="357.631" y1="3.60966" x2="323.401" y2="148.515" gradientUnits="userSpaceOnUse">
<stop stop-color="#53555E"/>
<stop offset="1" stop-color="white" stop-opacity="0"/>
</linearGradient>
</defs>
</svg>

