<svg width="52" height="23" viewBox="0 0 52 23" fill="none" xmlns="http://www.w3.org/2000/svg">
<g clip-path="url(#clip0_1105_228)">
<path d="M13.1544 16.4178C12.989 16.1578 12.7684 15.7425 12.6322 15.435C11.8375 13.6344 11.8018 11.7703 12.47 9.98239C13.2063 8.02008 14.6141 6.52061 16.4337 5.75343C18.7205 4.79288 21.2473 4.97992 23.44 6.25115C24.8316 7.031 25.8176 8.23565 26.5669 9.94118C26.661 10.1599 26.7453 10.3913 26.8296 10.5911L13.1544 16.4178ZM17.7215 8.64776C16.0964 9.32934 15.2595 10.8193 15.4347 12.5629L22.3112 9.66855C21.1273 8.31173 19.5898 7.86157 17.7215 8.64776V8.64776ZM23.1676 14.9436C23.1643 14.9436 23.1643 14.9468 23.1643 14.9468L23.0216 14.8517C22.6097 15.5016 21.9707 16.031 21.163 16.3734C19.6255 17.0264 18.2015 16.8584 17.1765 15.9803L17.0825 16.1198C17.0825 16.1198 17.0825 16.1166 17.0792 16.1166L15.3341 18.6685C15.7688 18.9634 16.2326 19.2106 16.7192 19.4104C18.6459 20.1934 20.6181 20.1553 22.561 19.3311C23.9655 18.7351 25.0683 17.8285 25.8209 16.6777L23.1676 14.9436ZM31.6075 2V16.1832L33.8651 17.0771L32.5839 20L30.0928 18.9856C29.5348 18.7478 29.1521 18.3864 28.8667 17.9775C28.5909 17.5622 28.3866 16.9884 28.3866 16.2212V2H31.6075ZM37.4526 12.5724C37.4526 11.3646 38.0008 10.2804 38.8636 9.54491L36.5476 7.02149C34.9777 8.3783 33.9884 10.3596 33.9884 12.566C33.9851 14.7756 34.9745 16.7601 36.5411 18.1169L38.8539 15.5935C37.9943 14.8549 37.4526 13.777 37.4526 12.5724V12.5724ZM41.5656 16.5953C41.1114 16.5953 40.6703 16.5192 40.2616 16.3861L39.1555 19.5974C39.9113 19.8447 40.719 19.981 41.5623 19.981C45.2276 19.9842 48.2864 17.4417 48.9968 14.0655L45.5974 13.3871C45.2114 15.2226 43.5539 16.5985 41.5656 16.5953V16.5953ZM41.5753 5.16379C40.7352 5.16379 39.9275 5.29694 39.1717 5.54104L40.2681 8.75555C40.68 8.6224 41.1179 8.54949 41.572 8.54949C43.5636 8.55266 45.2244 9.93484 45.6007 11.7735L49 11.1014C48.3026 7.71891 45.2438 5.16696 41.5753 5.16379V5.16379Z" fill="white"/>
</g>
<defs>
<clipPath id="clip0_1105_228">
<rect width="52" height="22" fill="white" transform="translate(0 0.691406)"/>
</clipPath>
</defs>
</svg>
